<?xml version="1.0" standalone="no"?><!DOCTYPE svg PUBLIC "-//W3C//DTD SVG 1.1//EN" "http://www.w3.org/Graphics/SVG/1.1/DTD/svg11.dtd"><svg t="1504511926570" class="icon" style="" viewBox="0 0 1024 1024" version="1.1" xmlns="http://www.w3.org/2000/svg" p-id="5138" xmlns:xlink="http://www.w3.org/1999/xlink" width="48" height="48"><defs><style type="text/css"></style></defs><path d="M512 1.494024c-281.950993 0-510.526442 228.575449-510.526442 510.505976 0 94.604469 26.186353 182.884918 71.027541 258.895951L22.215933 990.005836l200.874605-57.305033a507.824919 507.824919 0 0 0 288.909462 89.79494c281.950993 0 510.526442-228.575449 510.526442-510.536675S793.94076 1.494024 512 1.494024z m53.477875 551.427909H451.799017l42.108966-115.684534h113.668625z m-25.265379 69.410721H426.533637l-29.839549 81.987129a34.710477 34.710477 0 0 1-65.225407-23.740657l21.202862-58.246472H307.318703a34.710477 34.710477 0 1 1 0-69.410721h70.607987l42.108966-115.684534h-65.839389a34.710477 34.710477 0 1 1 0-69.410721h91.074069l22.942479-63.01507a34.710477 34.710477 0 0 1 65.225407 23.740656l-14.326258 39.284647h113.730023l22.932247-63.01507a34.710477 34.710477 0 0 1 65.225406 23.740657l-14.326258 39.284646h22.993644a34.710477 34.710477 0 1 1 0 69.410721h-48.218091l-42.108966 115.653835h43.480193a34.710477 34.710477 0 1 1 0 69.410721h-68.745573l-29.839549 81.987129a34.710477 34.710477 0 0 1-65.225407-23.740657z" p-id="5139" fill="#0d7a27"></path></svg>