<?xml version="1.0" standalone="no"?><!DOCTYPE svg PUBLIC "-//W3C//DTD SVG 1.1//EN" "http://www.w3.org/Graphics/SVG/1.1/DTD/svg11.dtd"><svg t="1504511855701" class="icon" style="" viewBox="0 0 1386 1024" version="1.1" xmlns="http://www.w3.org/2000/svg" p-id="4245" xmlns:xlink="http://www.w3.org/1999/xlink" width="64.96875" height="48"><defs><style type="text/css"></style></defs><path d="M1361.989493 966.857775l-211.913208 56.275332c-0.421538 0.120439-0.812966 0-1.234504 0.09033-16.319545 3.643293-32.75953-5.841313-37.12546-21.980199l-56.66676-209.564639c-4.45626-16.530314 5.449885-33.542386 22.160858-37.968536 16.710973-4.42615 33.903704 5.359555 38.359964 21.919979l38.901942 143.83481 39.684798-63.23071c143.684261-238.349667-11.712736-344.276161-11.712736-344.276161 221.187045 122.306259 90.450025 323.259477 59.105659 375.289319l-32.277772 56.034453 136.518114-36.252274c16.710973-4.42615 33.903704 5.389665 38.359964 21.919979C1388.63672 945.419553 1378.700466 962.431625 1361.989493 966.857775zM1053.845166 421.538066 270.988757 421.538066c-16.620644 0-30.109862-13.459108-30.109862-30.109862 0-16.620644 13.489218-30.109862 30.109862-30.109862l782.856409 0c16.620644 0 30.109862 13.459108 30.109862 30.109862C1083.955028 408.048848 1070.46581 421.538066 1053.845166 421.538066zM812.966271 60.219724 30.109862 60.219724C13.489218 60.219724 0 46.730506 0 30.109862c0-16.620644 13.489218-30.109862 30.109862-30.109862l782.856409 0c16.620644 0 30.109862 13.459108 30.109862 30.109862C843.076133 46.730506 829.586915 60.219724 812.966271 60.219724zM30.109862 722.636685l782.856409 0c16.620644 0 30.109862 13.459108 30.109862 30.109862 0 16.650754-13.489218 30.109862-30.109862 30.109862L30.109862 782.856409c-16.620644 0-30.109862-13.459108-30.109862-30.109862C0 736.095794 13.489218 722.636685 30.109862 722.636685z" p-id="4246" fill="#707070"></path></svg>