<?xml version="1.0" standalone="no"?><!DOCTYPE svg PUBLIC "-//W3C//DTD SVG 1.1//EN" "http://www.w3.org/Graphics/SVG/1.1/DTD/svg11.dtd"><svg t="1504846613234" class="icon" style="" viewBox="0 0 1024 1024" version="1.1" xmlns="http://www.w3.org/2000/svg" p-id="7488" xmlns:xlink="http://www.w3.org/1999/xlink" width="48" height="48"><defs><style type="text/css"></style></defs><path d="M512.2288065654308 217.41154700810262c0.005362653877279683 1.734723475976807e-18 0.010725307754559366 3.469446951953614e-18 0.014300410339412487 5.204170427930421e-18 16.332856158901485 5.329070518200751e-15 31.065853911081206 6.844533898701313 41.48906549722047 17.821886385492828l449.17052610706867 474.7986489865885c9.679590248489824 10.22479339267993 15.62856094968541 24.067590601231217 15.630348500977842 39.29752761270551-8.881784197001252e-15 31.600331747516748-25.615610020472637 57.215941767989364-57.215941767989385 57.21594176798935-16.36860718475002-5.329070518200751e-15-31.131993308900974-6.873134719380136-41.56056754891753-17.891600885897454l-407.64213448141487-430.9839792579211-407.9621061627594 430.9571659885345c-10.466112817157518 11.02025371780974-25.227711390016058 17.877300475558016-41.589168369596365 17.87730047555801-15.222786806304594-5.329070518200751e-15-29.058433809686168-5.934670290856191-39.322553330799465-15.616048090638444-22.852055722381145-21.70981044652059-23.881685266818835-57.977438618563085-2.259464833627149-80.85630761033059l449.6049010711287-474.7736232684945c10.446449752940824-11.002378204885478 25.17944750512054-17.846912103586774 41.51230366402203-17.846912103586767 0.04468878231066403 6.938893903907228e-18 0.09116511591375459 3.469446951953614e-17 0.13585389822441857 4.163336342344337e-17z" p-id="7489" fill="#707070"></path></svg>