<?xml version="1.0" standalone="no"?><!DOCTYPE svg PUBLIC "-//W3C//DTD SVG 1.1//EN" "http://www.w3.org/Graphics/SVG/1.1/DTD/svg11.dtd"><svg t="1504545674470" class="icon" style="" viewBox="0 0 1024 1024" version="1.1" xmlns="http://www.w3.org/2000/svg" p-id="9313" xmlns:xlink="http://www.w3.org/1999/xlink" width="48" height="48"><defs><style type="text/css"></style></defs><path d="M806.503729 152.643516 629.040837 152.643516 629.040837 92.444459 393.063922 92.444459l0 60.199057L215.602053 152.643516l0 59.361993 590.896559 0L806.503729 152.643516 806.503729 152.643516zM807.984514 258.19755 157.083938 258.19755l0 87.209224 59.092214 0 0 586.148767 591.814502 0L807.990654 345.405751l58.925409 0 0-87.209224L807.984514 258.196527 807.984514 258.19755 807.984514 258.19755zM386.454117 846.607824l-79.839574 0L306.614543 344.556407l79.839574 0L386.454117 846.607824 386.454117 846.607824 386.454117 846.607824zM551.643995 846.607824l-79.842644 0L471.801351 344.556407l79.842644 0L551.643995 846.607824 551.643995 846.607824 551.643995 846.607824zM719.658314 846.607824l-79.844691 0L639.813623 344.556407l79.844691 0L719.658314 846.607824 719.658314 846.607824 719.658314 846.607824z" p-id="9314" fill="#515151"></path></svg>