<?xml version="1.0" standalone="no"?><!DOCTYPE svg PUBLIC "-//W3C//DTD SVG 1.1//EN" "http://www.w3.org/Graphics/SVG/1.1/DTD/svg11.dtd"><svg t="1504539229551" class="icon" style="" viewBox="0 0 1024 1024" version="1.1" xmlns="http://www.w3.org/2000/svg" p-id="5128" xmlns:xlink="http://www.w3.org/1999/xlink" width="48" height="48"><defs><style type="text/css"></style></defs><path d="M995.086457 548.589705h-22.004998c-23.028486 0-36.333833-36.845577-36.333833-36.845577v-93.137431h-844.377811v372.549725s18.934533 139.706147 126.912544 139.706147h337.751124s26.098951 8.69965 26.098951 33.775112v28.657671c0 28.145927-26.610695 30.704648-26.610695 30.704648h-329.051474c-121.283358 0-219.538231-106.442779-219.538231-237.449275V0l794.226887 1.023488c121.283358 0 219.538231 106.442779 219.53823 237.449276v276.341829c-0.511744 29.169415-26.610695 33.775112-26.610694 33.775112zM936.747626 232.331834c0-141.241379-84.437781-139.706147-84.437781-139.706147h-760.451774v232.843578H936.747626v-93.137431z m-380.225887 512.255872c0-25.587206 18.934533-46.568716 42.474763-46.568715h126.912543v-139.706147c0-25.587206 18.934533-46.568716 42.474763-46.568716s42.474763 20.981509 42.474763 46.568716v139.706147H936.747626c23.54023 0 42.474763 20.981509 42.474763 46.568715s-18.934533 46.568716-42.474763 46.568716h-126.912544v186.274862c0 25.587206-18.934533 46.568716-42.474762 46.568716s-42.474763-20.981509-42.474763-46.568716v-186.274862H598.996502c-23.54023 0-42.474763-20.981509-42.474763-46.568716z" fill="#707070" p-id="5129"></path></svg>