<?xml version="1.0" standalone="no"?><!DOCTYPE svg PUBLIC "-//W3C//DTD SVG 1.1//EN" "http://www.w3.org/Graphics/SVG/1.1/DTD/svg11.dtd"><svg t="1504537758033" class="icon" style="" viewBox="0 0 1024 1024" version="1.1" xmlns="http://www.w3.org/2000/svg" p-id="2673" xmlns:xlink="http://www.w3.org/1999/xlink" width="48" height="48"><defs><style type="text/css"></style></defs><path d="M914.912 872.736l-232.416-232.448c46.72-56.192 74.848-128.32 74.848-207.072 0-179.04-145.12-324.128-324.128-324.128-179.008 0-324.128 145.12-324.128 324.128 0 179.008 145.152 324.128 324.128 324.128 78.784 0 150.912-28.128 207.072-74.848l232.416 232.448 42.208-42.208zM143.2 433.216c0-159.904 130.08-290.016 290.016-290.016 159.904 0 290.016 130.112 290.016 290.016s-130.112 290.016-290.016 290.016c-159.936 0-290.016-130.112-290.016-290.016z" p-id="2674" fill="#8a8a8a"></path></svg>