<?xml version="1.0" standalone="no"?><!DOCTYPE svg PUBLIC "-//W3C//DTD SVG 1.1//EN" "http://www.w3.org/Graphics/SVG/1.1/DTD/svg11.dtd"><svg t="1504518763353" class="icon" style="" viewBox="0 0 1041 1024" version="1.1" xmlns="http://www.w3.org/2000/svg" p-id="6776" xmlns:xlink="http://www.w3.org/1999/xlink" width="48.796875" height="48"><defs><style type="text/css"></style></defs><path d="M1040.968463 609.919147" p-id="6777" fill="#707070"></path><path d="M1040.968463 609.919147" p-id="6778" fill="#707070"></path><path d="M205.00814 443.107957c14.112416 0 25.535583-11.440563 25.535583-25.52535 0-14.103206-11.423167-25.555026-25.535583-25.555026-0.260943 0-0.475837 0.146333-0.718361 0.146333l-61.034075 0.14224c-1.39579-0.187265-2.836605-0.288572-4.272303-0.288572-19.213597 0-34.790364 15.765055-34.790364 35.274388l-0.333598 423.205675c0 19.487843 15.594163 34.763758 34.83539 34.763758 1.87572 0 3.718695 0.287549 5.516644 0l59.60247 0.026606c0.096191 0 0.14224 0.046049 0.242524 0.046049 0.092098 0 0.14224-0.046049 0.237407-0.046049l0.718361 0 0-0.147356c13.101389-0.525979 23.608697-11.157107 23.608697-24.378224 0-13.242606-10.508331-23.86964-23.608697-24.399713l0-0.38067-49.758264 0 1.413186-392.886135L205.00814 443.10591 205.00814 443.107957 205.00814 443.107957zM924.149874 406.52476c-18.839067-30.708396-46.236044-43.143613-79.397305-44.48312-1.724271-0.242524-3.449565-0.388856-5.251607-0.388856l-200.646809-0.672312c13.143345-38.143739 22.167882-83.587744 22.167882-126.296451 0-27.685549-3.119037-54.652737-8.832156-80.612992l-0.476861 0.045025c-10.392698-45.490054-50.53086-79.415724-98.609879-79.415724-55.9288 0-93.239568 47.028083-93.239568 103.652731 0 3.165086-0.283456 6.235005 0 9.309016-2.927679 105.851816-89.109504 190.976566-191.652971 202.659653l0 53.605895-0.76748 217.036082 0 224.381373 10.456143 0 488.348324 0.218988 8.549723-0.237407c18.902512 0.046049 29.528524-4.707209 46.683229-15.741519 16.295128-10.511401 28.555359-24.904203 36.614919-41.170678 2.209318-3.266393 3.935636-6.90834 4.985548-10.93812L938.303222 481.186204c1.029446-3.956102 1.316995-7.986905 1.029446-11.875468C940.869674 448.02699 936.12051 426.054559 924.149874 406.52476L924.149874 406.52476 924.149874 406.52476zM892.214535 458.177164l-81.047898 359.193779-0.092098-0.046049c-2.501984 5.996574-6.720052 11.320836-12.570293 15.068184-4.085038 2.659573-8.573259 4.245697-13.107529 4.849448-1.464351-0.192382-2.977821 0-4.50971 0l-465.886753-0.531096-0.172939-397.895219c87.24197-39.327704 151.22726-77.809133 184.196139-169.602769 0.072655 0.022513 0.122797 0.046049 0.191358 0.068562 2.928702-8.924253 6.16542-20.252253 8.492418-32.387641 5.425569-28.509311 5.135974-56.767911 5.135974-56.767911-4.821819-37.090756 25.340131-51.729152 43.330878-51.729152 24.711821 0.842181 49.091068 32.868595 49.091068 51.102888 0 0 5.466502 26.922163 5.517667 55.856146 0.046049 36.491099-4.560876 55.516408-4.560876 55.516408l-0.452301 0c-5.736655 30.160927-15.838733 58.734706-29.757744 84.937484l0.36225 0.338714c-2.301416 4.702092-3.623527 9.981329-3.623527 15.567557 0 19.460214 18.645662 21.23872 37.858236 21.23872l233.191016 0.261966c0 0 14.3181 0.452301 14.346753 0.452301l0 0.101307c11.847839-0.627287 23.654746 5.081739 30.375821 16.022928 5.374404 8.806573 6.28617 19.150152 3.402493 28.308743L892.214535 458.177164 892.214535 458.177164 892.214535 458.177164zM277.899264 885.443317c0.316202 0.024559 0.433882 0.024559 0.292666-0.024559 0.237407-0.046049 0.357134-0.072655-0.292666-0.072655-0.64059 0-0.520863 0.026606-0.25992 0.072655C277.519618 885.467877 277.615808 885.467877 277.899264 885.443317L277.899264 885.443317 277.899264 885.443317zM277.899264 885.443317" p-id="6779" fill="#707070"></path></svg>